<?xml version="1.0" standalone="no"?><!DOCTYPE svg PUBLIC "-//W3C//DTD SVG 1.1//EN" "http://www.w3.org/Graphics/SVG/1.1/DTD/svg11.dtd"><svg t="1757390705323" class="icon" viewBox="0 0 1024 1024" version="1.1" xmlns="http://www.w3.org/2000/svg" p-id="2830" xmlns:xlink="http://www.w3.org/1999/xlink" width="200" height="200"><path d="M144.969731 376.531151 102.55895 199.735271l137.889226 0 42.446906 176.832005L144.969731 376.567276zM109.639455 449.034079l176.795879 0 0-49.491286 180.336132 0 0 49.491286 173.255627 0 0 77.777182-173.255627 0 0 397.844916L286.435335 924.656177 286.435335 526.811261 109.639455 526.811261 109.639455 449.034079zM650.647852 162.598744 113.143583 174.989628 113.143583 97.212446l537.504269-8.850631L650.647852 162.598744zM113.143583 905.220913l51.261413-350.087631 116.683835 0-51.261413 350.087631L113.143583 905.220913zM307.640725 376.531151 261.689692 189.150639l139.695477 0 45.951034 187.416637L307.640725 376.567276zM512.722501 189.150639l137.925351 0-56.571791 187.416637-136.155225 0L512.722501 189.150639zM472.081846 555.133282l116.683835 0 51.261413 350.087631-116.683835 0L472.081846 555.133282zM645.337473 335.890496l102.55895-261.689692 160.900868 0-102.522825 261.689692L645.337473 335.890496zM908.797291 365.946518l-102.522825 263.423693-160.900868 0 102.55895-263.423693L908.797291 365.946518zM908.797291 659.426233l-102.522825 261.689692-160.900868 0 102.55895-261.689692L908.797291 659.426233z" p-id="2831" fill="#e6e6e6" data-spm-anchor-id="a313x.search_index.0.i4.2c183a81arsPjU" class="selected"></path></svg>